<svg width="40" height="40" viewBox="0 0 40 40" fill="none" xmlns="http://www.w3.org/2000/svg">
<g clip-path="url(#clip0)">
<g clip-path="url(#clip1)">
<path fill-rule="evenodd" clip-rule="evenodd" d="M8.30813 4.00378C6.02578 4.00378 4.33695 6.00144 4.41258 8.16785C4.48516 10.2492 4.39086 12.9448 3.71227 15.1431C3.03125 17.3475 1.88031 18.7445 0 18.9238V20.9482C1.88031 21.1278 3.03125 22.5241 3.71219 24.7289C4.39086 26.9271 4.48508 29.6228 4.4125 31.7041C4.33687 33.8702 6.0257 35.8682 8.30844 35.8682H31.6949C33.9773 35.8682 35.6658 33.8705 35.5902 31.7041C35.5176 29.6228 35.6119 26.9271 36.2905 24.7289C36.9715 22.5241 38.1196 21.1273 40 20.9482V18.9238C38.1197 18.7441 36.9716 17.3478 36.2905 15.1431C35.6118 12.9451 35.5176 10.2492 35.5902 8.16785C35.6658 6.00175 33.9773 4.00378 31.6949 4.00378H8.30781H8.30813ZM27.1187 23.6184C27.1187 26.6014 24.8936 28.4106 21.201 28.4106H14.9152C14.7354 28.4106 14.563 28.3392 14.4358 28.212C14.3087 28.0849 14.2373 27.9124 14.2373 27.7326V12.1394C14.2373 11.9596 14.3087 11.7872 14.4358 11.66C14.563 11.5329 14.7354 11.4614 14.9152 11.4614H21.1652C24.2442 11.4614 26.2649 13.1293 26.2649 15.6899C26.2649 17.4871 24.9055 19.0961 23.1737 19.378V19.4718C25.5312 19.7303 27.1187 21.3632 27.1187 23.6184ZM20.5156 13.6106H16.9316V18.6731H19.9502C22.2838 18.6731 23.5705 17.7334 23.5705 16.0538C23.5703 14.4797 22.4641 13.6106 20.5156 13.6106ZM16.9316 20.6818V26.2607H20.6475C23.0772 26.2607 24.3641 25.2858 24.3641 23.4536C24.3641 21.6214 23.0411 20.6814 20.4912 20.6814H16.9316V20.6818Z" fill="#7952B3"/>
</g>
</g>
<defs>
<clipPath id="clip0">
<rect width="40" height="40" fill="white"/>
</clipPath>
<clipPath id="clip1">
<rect width="40" height="31.872" fill="white" transform="translate(0 4)"/>
</clipPath>
</defs>
</svg>
