<svg width="690" height="466" xmlns="http://www.w3.org/2000/svg" xmlns:xlink="http://www.w3.org/1999/xlink" overflow="hidden"><defs><clipPath id="clip0"><path d="M-20-3 670-3 670 463-20 463Z" fill-rule="evenodd" clip-rule="evenodd"/></clipPath><linearGradient x1="114" y1="-20" x2="533" y2="399" gradientUnits="userSpaceOnUse" spreadMethod="reflect" id="fill1"><stop offset="0" stop-color="#5E31DC"/><stop offset="0.75" stop-color="#045DE9"/><stop offset="1" stop-color="#045DE9"/></linearGradient><linearGradient x1="114" y1="-20" x2="533" y2="399" gradientUnits="userSpaceOnUse" spreadMethod="reflect" id="fill2"><stop offset="0" stop-color="#5E31DC"/><stop offset="0.75" stop-color="#045DE9"/><stop offset="1" stop-color="#045DE9"/></linearGradient><linearGradient x1="114" y1="-20" x2="533" y2="399" gradientUnits="userSpaceOnUse" spreadMethod="reflect" id="fill3"><stop offset="0" stop-color="#5E31DC"/><stop offset="0.75" stop-color="#045DE9"/><stop offset="1" stop-color="#045DE9"/></linearGradient><linearGradient x1="114" y1="-20" x2="533" y2="399" gradientUnits="userSpaceOnUse" spreadMethod="reflect" id="fill4"><stop offset="0" stop-color="#5E31DC"/><stop offset="0.75" stop-color="#045DE9"/><stop offset="1" stop-color="#045DE9"/></linearGradient><linearGradient x1="114" y1="-20" x2="533" y2="399" gradientUnits="userSpaceOnUse" spreadMethod="reflect" id="fill5"><stop offset="0" stop-color="#5E31DC"/><stop offset="0.75" stop-color="#045DE9"/><stop offset="1" stop-color="#045DE9"/></linearGradient><linearGradient x1="114" y1="-20" x2="533" y2="399" gradientUnits="userSpaceOnUse" spreadMethod="reflect" id="fill6"><stop offset="0" stop-color="#5E31DC"/><stop offset="0.75" stop-color="#045DE9"/><stop offset="1" stop-color="#045DE9"/></linearGradient><linearGradient x1="114" y1="-20" x2="533" y2="399" gradientUnits="userSpaceOnUse" spreadMethod="reflect" id="fill7"><stop offset="0" stop-color="#5E31DC"/><stop offset="0.75" stop-color="#045DE9"/><stop offset="1" stop-color="#045DE9"/></linearGradient><linearGradient x1="114" y1="-20" x2="533" y2="399" gradientUnits="userSpaceOnUse" spreadMethod="reflect" id="fill8"><stop offset="0" stop-color="#5E31DC"/><stop offset="0.75" stop-color="#045DE9"/><stop offset="1" stop-color="#045DE9"/></linearGradient><linearGradient x1="114" y1="-20" x2="533" y2="399" gradientUnits="userSpaceOnUse" spreadMethod="reflect" id="fill9"><stop offset="0" stop-color="#5E31DC"/><stop offset="0.75" stop-color="#045DE9"/><stop offset="1" stop-color="#045DE9"/></linearGradient><linearGradient x1="114" y1="-20" x2="533" y2="399" gradientUnits="userSpaceOnUse" spreadMethod="reflect" id="fill10"><stop offset="0" stop-color="#5E31DC"/><stop offset="0.75" stop-color="#045DE9"/><stop offset="1" stop-color="#045DE9"/></linearGradient></defs><g clip-path="url(#clip0)" transform="translate(20 3)"><text fill="#045DE9" font-family="Google Sans,Google Sans_MSFontService,sans-serif" font-weight="500" font-size="221" transform="translate(113.451 269)">SDR</text><rect x="52" y="53" width="22" height="272" fill="url(#fill1)"/><rect x="63" y="42" width="521" height="23" fill="url(#fill2)"/><rect x="572" y="52.9999" width="23" height="204" fill="url(#fill3)"/><rect x="505" y="246" width="78" height="23" fill="url(#fill4)"/><path d="M572 257.5C572 251.149 577.149 246 583.5 246 589.851 246 595 251.149 595 257.5 595 263.851 589.851 269 583.5 269 577.149 269 572 263.851 572 257.5Z" fill="url(#fill5)" fill-rule="evenodd"/><path d="M572 53.5C572 47.1487 577.149 42 583.5 42 589.851 42 595 47.1487 595 53.5 595 59.8513 589.851 65 583.5 65 577.149 65 572 59.8513 572 53.5Z" fill="url(#fill6)" fill-rule="evenodd"/><path d="M52 53.5C52 47.1487 57.1487 42 63.5 42 69.8513 42 75 47.1487 75 53.5 75 59.8513 69.8513 65 63.5 65 57.1487 65 52 59.8513 52 53.5Z" fill="url(#fill7)" fill-rule="evenodd"/><rect x="63" y="314" width="481" height="23" fill="url(#fill8)"/><path d="M52 324.5C52 318.149 57.1487 313 63.5 313 69.8513 313 75 318.149 75 324.5 75 330.851 69.8513 336 63.5 336 57.1487 336 52 330.851 52 324.5Z" fill="url(#fill9)" fill-rule="evenodd"/><path d="M532 325.5C532 319.149 536.925 314 543 314 549.075 314 554 319.149 554 325.5 554 331.851 549.075 337 543 337 536.925 337 532 331.851 532 325.5Z" fill="url(#fill10)" fill-rule="evenodd"/></g></svg>